<svg width="180" height="235" viewBox="0 0 180 235" fill="none" xmlns="http://www.w3.org/2000/svg">
<path d="M56.709 115H46.8994V75.7959H42.0117V65.9863H56.709V115ZM94.375 90.4932C94.375 85.0472 93.4635 81.0026 91.6406 78.3594C89.8405 75.7161 87.3226 74.3945 84.0869 74.3945C80.874 74.3945 78.3789 75.7048 76.6016 78.3252C74.8242 80.9456 73.9355 85.0016 73.9355 90.4932C73.9355 95.9391 74.8242 99.9837 76.6016 102.627C78.3789 105.27 80.874 106.592 84.0869 106.592C85.7048 106.592 87.1517 106.273 88.4277 105.635C89.7038 104.974 90.7747 103.983 91.6406 102.661C92.5293 101.34 93.2015 99.6761 93.6572 97.6709C94.1357 95.6429 94.375 93.2503 94.375 90.4932ZM103.706 90.4932C103.706 95.1416 103.193 99.0723 102.168 102.285C101.143 105.498 99.7412 108.096 97.9639 110.078C96.1865 112.061 94.1016 113.496 91.709 114.385C89.3392 115.251 86.7985 115.684 84.0869 115.684C81.3753 115.684 78.8232 115.239 76.4307 114.351C74.0609 113.439 71.9873 111.992 70.21 110.01C68.4554 108.005 67.0654 105.407 66.04 102.217C65.0146 99.0039 64.502 95.096 64.502 90.4932C64.502 85.8447 65.0146 81.9255 66.04 78.7354C67.0654 75.5225 68.4554 72.9248 70.21 70.9424C71.9873 68.96 74.0609 67.5244 76.4307 66.6357C78.8232 65.7471 81.3753 65.3027 84.0869 65.3027C86.7985 65.3027 89.3392 65.7585 91.709 66.6699C94.1016 67.5586 96.1865 69.0055 97.9639 71.0107C99.7412 73.016 101.143 75.6136 102.168 78.8037C103.193 81.9938 103.706 85.8903 103.706 90.4932ZM128.315 104.233H118.984V94.9023H109.277V85.6055H118.984V75.5225H128.315V85.6055H137.988V94.9023H128.315V104.233Z" fill="white"/>
<path d="M177.5 90C177.5 138.325 138.325 177.5 90 177.5C41.6751 177.5 2.5 138.325 2.5 90C2.5 41.6751 41.6751 2.5 90 2.5C138.325 2.5 177.5 41.6751 177.5 90Z" stroke="white" stroke-width="5"/>
<path d="M59.2832 209H56.7695V205.054C56.2129 204.913 55.7002 204.688 55.2314 204.377C54.7686 204.066 54.3701 203.697 54.0361 203.27C53.7021 202.836 53.4414 202.358 53.2539 201.837C53.0723 201.31 52.9814 200.756 52.9814 200.176V196.396H55.5039V200.176C55.5039 200.521 55.5684 200.85 55.6973 201.16C55.832 201.465 56.0137 201.731 56.2422 201.96C56.4707 202.188 56.7373 202.37 57.042 202.505C57.3525 202.634 57.6807 202.698 58.0264 202.698C58.3721 202.698 58.6973 202.634 59.002 202.505C59.3125 202.37 59.582 202.188 59.8105 201.96C60.0391 201.731 60.2178 201.465 60.3467 201.16C60.4814 200.85 60.5488 200.521 60.5488 200.176V196.396H63.0625V200.176C63.0625 200.756 62.9688 201.31 62.7812 201.837C62.5996 202.358 62.3418 202.836 62.0078 203.27C61.6738 203.697 61.2754 204.066 60.8125 204.377C60.3496 204.688 59.8398 204.913 59.2832 205.054V209ZM67.8965 206.697C67.9902 206.727 68.084 206.747 68.1777 206.759C68.2715 206.765 68.3652 206.768 68.459 206.768C68.6934 206.768 68.9189 206.735 69.1357 206.671C69.3525 206.606 69.5547 206.516 69.7422 206.398C69.9355 206.275 70.1055 206.129 70.252 205.959C70.4043 205.783 70.5273 205.59 70.6211 205.379L72.3789 207.146C72.1562 207.462 71.8984 207.746 71.6055 207.998C71.3184 208.25 71.0049 208.464 70.665 208.64C70.3311 208.815 69.9766 208.947 69.6016 209.035C69.2324 209.129 68.8516 209.176 68.459 209.176C67.7969 209.176 67.1729 209.053 66.5869 208.807C66.0068 208.561 65.4971 208.218 65.0576 207.778C64.624 207.339 64.2812 206.817 64.0293 206.214C63.7773 205.604 63.6514 204.937 63.6514 204.21C63.6514 203.466 63.7773 202.786 64.0293 202.171C64.2812 201.556 64.624 201.031 65.0576 200.598C65.4971 200.164 66.0068 199.827 66.5869 199.587C67.1729 199.347 67.7969 199.227 68.459 199.227C68.8516 199.227 69.2354 199.273 69.6104 199.367C69.9854 199.461 70.3398 199.596 70.6738 199.771C71.0137 199.947 71.3301 200.164 71.623 200.422C71.916 200.674 72.1738 200.958 72.3965 201.274L67.8965 206.697ZM69.127 201.749C69.0156 201.708 68.9043 201.682 68.793 201.67C68.6875 201.658 68.5762 201.652 68.459 201.652C68.1309 201.652 67.8203 201.714 67.5273 201.837C67.2402 201.954 66.9883 202.124 66.7715 202.347C66.5605 202.569 66.3936 202.839 66.2705 203.155C66.1475 203.466 66.0859 203.817 66.0859 204.21C66.0859 204.298 66.0889 204.397 66.0947 204.509C66.1064 204.62 66.1211 204.734 66.1387 204.852C66.1621 204.963 66.1885 205.071 66.2178 205.177C66.2471 205.282 66.2852 205.376 66.332 205.458L69.127 201.749ZM82.6533 209H82.0732L81.1416 207.708C80.9131 207.913 80.6699 208.106 80.4121 208.288C80.1602 208.464 79.8936 208.619 79.6123 208.754C79.3311 208.883 79.041 208.985 78.7422 209.062C78.4492 209.138 78.1504 209.176 77.8457 209.176C77.1836 209.176 76.5596 209.064 75.9736 208.842C75.3936 208.619 74.8838 208.297 74.4443 207.875C74.0107 207.447 73.668 206.926 73.416 206.311C73.1641 205.695 73.0381 204.995 73.0381 204.21C73.0381 203.478 73.1641 202.807 73.416 202.197C73.668 201.582 74.0107 201.055 74.4443 200.615C74.8838 200.176 75.3936 199.836 75.9736 199.596C76.5596 199.35 77.1836 199.227 77.8457 199.227C78.1504 199.227 78.4521 199.265 78.751 199.341C79.0498 199.417 79.3398 199.522 79.6211 199.657C79.9023 199.792 80.1689 199.95 80.4209 200.132C80.6787 200.313 80.9189 200.51 81.1416 200.721L82.0732 199.604H82.6533V209ZM80.2363 204.21C80.2363 203.882 80.1719 203.565 80.043 203.261C79.9199 202.95 79.75 202.678 79.5332 202.443C79.3164 202.203 79.0615 202.013 78.7686 201.872C78.4814 201.726 78.1738 201.652 77.8457 201.652C77.5176 201.652 77.207 201.708 76.9141 201.819C76.627 201.931 76.375 202.095 76.1582 202.312C75.9473 202.528 75.7803 202.798 75.6572 203.12C75.5342 203.437 75.4727 203.8 75.4727 204.21C75.4727 204.62 75.5342 204.986 75.6572 205.309C75.7803 205.625 75.9473 205.892 76.1582 206.108C76.375 206.325 76.627 206.489 76.9141 206.601C77.207 206.712 77.5176 206.768 77.8457 206.768C78.1738 206.768 78.4814 206.697 78.7686 206.557C79.0615 206.41 79.3164 206.22 79.5332 205.985C79.75 205.745 79.9199 205.473 80.043 205.168C80.1719 204.857 80.2363 204.538 80.2363 204.21ZM86.8896 209H84.4902V199.587H85.0703L85.8613 200.703C86.248 200.352 86.6875 200.082 87.1797 199.895C87.6719 199.701 88.1816 199.604 88.709 199.604H90.8271V201.995H88.709C88.457 201.995 88.2197 202.042 87.9971 202.136C87.7744 202.229 87.5811 202.358 87.417 202.522C87.2529 202.687 87.124 202.88 87.0303 203.103C86.9365 203.325 86.8896 203.562 86.8896 203.814V209ZM97.0059 209H91.5215V206.609H97.0059C97.1699 206.609 97.3105 206.551 97.4277 206.434C97.5449 206.316 97.6035 206.176 97.6035 206.012C97.6035 205.842 97.5449 205.73 97.4277 205.678C97.3105 205.625 97.1699 205.599 97.0059 205.599H94.5098C94.0938 205.599 93.7041 205.52 93.3408 205.361C92.9775 205.203 92.6611 204.989 92.3916 204.72C92.1221 204.444 91.9082 204.125 91.75 203.762C91.5977 203.398 91.5215 203.009 91.5215 202.593C91.5215 202.177 91.5977 201.787 91.75 201.424C91.9082 201.061 92.1221 200.744 92.3916 200.475C92.6611 200.205 92.9775 199.994 93.3408 199.842C93.7041 199.684 94.0938 199.604 94.5098 199.604H99.3701V201.995H94.5098C94.3457 201.995 94.2051 202.054 94.0879 202.171C93.9707 202.288 93.9121 202.429 93.9121 202.593C93.9121 202.763 93.9707 202.909 94.0879 203.032C94.2051 203.149 94.3457 203.208 94.5098 203.208H97.0059C97.416 203.208 97.8027 203.278 98.166 203.419C98.5293 203.554 98.8457 203.744 99.1152 203.99C99.3848 204.236 99.5986 204.532 99.7568 204.878C99.915 205.224 99.9941 205.602 99.9941 206.012C99.9941 206.428 99.915 206.817 99.7568 207.181C99.5986 207.538 99.3848 207.854 99.1152 208.13C98.8457 208.399 98.5293 208.613 98.166 208.771C97.8027 208.924 97.416 209 97.0059 209ZM118.926 202.751C118.926 203.349 118.847 203.926 118.688 204.482C118.536 205.033 118.319 205.552 118.038 206.038C117.757 206.519 117.417 206.958 117.019 207.356C116.62 207.755 116.181 208.098 115.7 208.385C115.22 208.666 114.701 208.883 114.145 209.035C113.588 209.193 113.011 209.272 112.413 209.272C111.815 209.272 111.238 209.193 110.682 209.035C110.131 208.883 109.612 208.666 109.126 208.385C108.646 208.098 108.206 207.755 107.808 207.356C107.409 206.958 107.066 206.519 106.779 206.038C106.498 205.552 106.278 205.033 106.12 204.482C105.968 203.926 105.892 203.349 105.892 202.751C105.892 202.153 105.968 201.576 106.12 201.02C106.278 200.463 106.498 199.944 106.779 199.464C107.066 198.983 107.409 198.544 107.808 198.146C108.206 197.747 108.646 197.407 109.126 197.126C109.612 196.845 110.131 196.628 110.682 196.476C111.238 196.317 111.815 196.238 112.413 196.238C113.011 196.238 113.588 196.317 114.145 196.476C114.701 196.628 115.22 196.845 115.7 197.126C116.181 197.407 116.62 197.747 117.019 198.146C117.417 198.544 117.757 198.983 118.038 199.464C118.319 199.944 118.536 200.463 118.688 201.02C118.847 201.576 118.926 202.153 118.926 202.751ZM116.421 202.751C116.421 202.2 116.315 201.682 116.104 201.195C115.894 200.703 115.606 200.278 115.243 199.921C114.886 199.558 114.461 199.271 113.969 199.06C113.482 198.849 112.964 198.743 112.413 198.743C111.856 198.743 111.335 198.849 110.849 199.06C110.362 199.271 109.938 199.558 109.574 199.921C109.211 200.278 108.924 200.703 108.713 201.195C108.502 201.682 108.396 202.2 108.396 202.751C108.396 203.302 108.502 203.82 108.713 204.307C108.924 204.787 109.211 205.209 109.574 205.572C109.938 205.936 110.362 206.223 110.849 206.434C111.335 206.645 111.856 206.75 112.413 206.75C112.964 206.75 113.482 206.645 113.969 206.434C114.461 206.223 114.886 205.936 115.243 205.572C115.606 205.209 115.894 204.787 116.104 204.307C116.315 203.82 116.421 203.302 116.421 202.751ZM123.382 209H120.982V201.978H119.813V199.587H120.982V199.139C120.982 198.559 121.091 198.014 121.308 197.504C121.53 196.994 121.832 196.552 122.213 196.177C122.6 195.796 123.048 195.497 123.558 195.28C124.067 195.058 124.612 194.946 125.192 194.946H126.994V197.337H125.192C124.935 197.337 124.694 197.384 124.472 197.478C124.255 197.565 124.064 197.691 123.9 197.855C123.742 198.014 123.616 198.204 123.522 198.427C123.429 198.644 123.382 198.881 123.382 199.139V199.587H126.326V201.978H123.382V209ZM54.124 231H45.4844V218.396H54.124V220.919H48.0068V223.441H52.1465V225.964H48.0068V228.478H54.124V231ZM64.3018 231H61.3662L59.4941 228.117L57.6045 231H54.6689L58.1055 226.175L54.6689 221.534H57.6045L59.4941 224.232L61.3662 221.534H64.3018L60.8564 226.175L64.3018 231ZM67.5801 234.586H65.1631V221.587H65.7432L66.7012 222.721C66.918 222.516 67.1553 222.322 67.4131 222.141C67.6709 221.959 67.9375 221.804 68.2129 221.675C68.4941 221.54 68.7842 221.435 69.083 221.358C69.3818 221.282 69.6836 221.244 69.9883 221.244C70.6504 221.244 71.2715 221.364 71.8516 221.604C72.4375 221.839 72.9473 222.173 73.3809 222.606C73.8203 223.04 74.166 223.564 74.418 224.18C74.6699 224.789 74.7959 225.466 74.7959 226.21C74.7959 226.983 74.6699 227.681 74.418 228.302C74.166 228.917 73.8203 229.441 73.3809 229.875C72.9473 230.303 72.4375 230.631 71.8516 230.859C71.2715 231.088 70.6504 231.202 69.9883 231.202C69.7773 231.202 69.5664 231.179 69.3555 231.132C69.1504 231.085 68.9453 231.023 68.7402 230.947C68.541 230.865 68.3418 230.774 68.1426 230.675C67.9492 230.575 67.7617 230.473 67.5801 230.367V234.586ZM72.3877 226.21C72.3877 225.812 72.3232 225.454 72.1943 225.138C72.0713 224.821 71.9014 224.555 71.6846 224.338C71.4678 224.115 71.2129 223.945 70.9199 223.828C70.627 223.711 70.3164 223.652 69.9883 223.652C69.6602 223.652 69.3496 223.711 69.0566 223.828C68.7695 223.945 68.5176 224.115 68.3008 224.338C68.084 224.555 67.9111 224.821 67.7822 225.138C67.6592 225.454 67.5977 225.812 67.5977 226.21C67.5977 226.591 67.6592 226.939 67.7822 227.256C67.9111 227.572 68.084 227.842 68.3008 228.064C68.5176 228.287 68.7695 228.46 69.0566 228.583C69.3496 228.706 69.6602 228.768 69.9883 228.768C70.3164 228.768 70.627 228.706 70.9199 228.583C71.2129 228.46 71.4678 228.287 71.6846 228.064C71.9014 227.842 72.0713 227.572 72.1943 227.256C72.3232 226.939 72.3877 226.591 72.3877 226.21ZM79.876 228.697C79.9697 228.727 80.0635 228.747 80.1572 228.759C80.251 228.765 80.3447 228.768 80.4385 228.768C80.6729 228.768 80.8984 228.735 81.1152 228.671C81.332 228.606 81.5342 228.516 81.7217 228.398C81.915 228.275 82.085 228.129 82.2314 227.959C82.3838 227.783 82.5068 227.59 82.6006 227.379L84.3584 229.146C84.1357 229.462 83.8779 229.746 83.585 229.998C83.2979 230.25 82.9844 230.464 82.6445 230.64C82.3105 230.815 81.9561 230.947 81.5811 231.035C81.2119 231.129 80.8311 231.176 80.4385 231.176C79.7764 231.176 79.1523 231.053 78.5664 230.807C77.9863 230.561 77.4766 230.218 77.0371 229.778C76.6035 229.339 76.2607 228.817 76.0088 228.214C75.7568 227.604 75.6309 226.937 75.6309 226.21C75.6309 225.466 75.7568 224.786 76.0088 224.171C76.2607 223.556 76.6035 223.031 77.0371 222.598C77.4766 222.164 77.9863 221.827 78.5664 221.587C79.1523 221.347 79.7764 221.227 80.4385 221.227C80.8311 221.227 81.2148 221.273 81.5898 221.367C81.9648 221.461 82.3193 221.596 82.6533 221.771C82.9932 221.947 83.3096 222.164 83.6025 222.422C83.8955 222.674 84.1533 222.958 84.376 223.274L79.876 228.697ZM81.1064 223.749C80.9951 223.708 80.8838 223.682 80.7725 223.67C80.667 223.658 80.5557 223.652 80.4385 223.652C80.1104 223.652 79.7998 223.714 79.5068 223.837C79.2197 223.954 78.9678 224.124 78.751 224.347C78.54 224.569 78.373 224.839 78.25 225.155C78.127 225.466 78.0654 225.817 78.0654 226.21C78.0654 226.298 78.0684 226.397 78.0742 226.509C78.0859 226.62 78.1006 226.734 78.1182 226.852C78.1416 226.963 78.168 227.071 78.1973 227.177C78.2266 227.282 78.2646 227.376 78.3115 227.458L81.1064 223.749ZM87.9883 231H85.5889V221.587H86.1689L86.96 222.703C87.3467 222.352 87.7861 222.082 88.2783 221.895C88.7705 221.701 89.2803 221.604 89.8076 221.604H91.9258V223.995H89.8076C89.5557 223.995 89.3184 224.042 89.0957 224.136C88.873 224.229 88.6797 224.358 88.5156 224.522C88.3516 224.687 88.2227 224.88 88.1289 225.103C88.0352 225.325 87.9883 225.562 87.9883 225.814V231ZM95.8721 219.029C95.8721 219.252 95.8281 219.46 95.7402 219.653C95.6582 219.847 95.5439 220.017 95.3975 220.163C95.251 220.304 95.0781 220.418 94.8789 220.506C94.6855 220.588 94.4775 220.629 94.2549 220.629C94.0322 220.629 93.8213 220.588 93.6221 220.506C93.4287 220.418 93.2588 220.304 93.1123 220.163C92.9717 220.017 92.8574 219.847 92.7695 219.653C92.6875 219.46 92.6465 219.252 92.6465 219.029C92.6465 218.812 92.6875 218.607 92.7695 218.414C92.8574 218.215 92.9717 218.045 93.1123 217.904C93.2588 217.758 93.4287 217.644 93.6221 217.562C93.8213 217.474 94.0322 217.43 94.2549 217.43C94.4775 217.43 94.6855 217.474 94.8789 217.562C95.0781 217.644 95.251 217.758 95.3975 217.904C95.5439 218.045 95.6582 218.215 95.7402 218.414C95.8281 218.607 95.8721 218.812 95.8721 219.029ZM95.459 231H93.042V221.587H95.459V231ZM101.04 228.697C101.134 228.727 101.228 228.747 101.321 228.759C101.415 228.765 101.509 228.768 101.603 228.768C101.837 228.768 102.062 228.735 102.279 228.671C102.496 228.606 102.698 228.516 102.886 228.398C103.079 228.275 103.249 228.129 103.396 227.959C103.548 227.783 103.671 227.59 103.765 227.379L105.522 229.146C105.3 229.462 105.042 229.746 104.749 229.998C104.462 230.25 104.148 230.464 103.809 230.64C103.475 230.815 103.12 230.947 102.745 231.035C102.376 231.129 101.995 231.176 101.603 231.176C100.94 231.176 100.316 231.053 99.7305 230.807C99.1504 230.561 98.6406 230.218 98.2012 229.778C97.7676 229.339 97.4248 228.817 97.1729 228.214C96.9209 227.604 96.7949 226.937 96.7949 226.21C96.7949 225.466 96.9209 224.786 97.1729 224.171C97.4248 223.556 97.7676 223.031 98.2012 222.598C98.6406 222.164 99.1504 221.827 99.7305 221.587C100.316 221.347 100.94 221.227 101.603 221.227C101.995 221.227 102.379 221.273 102.754 221.367C103.129 221.461 103.483 221.596 103.817 221.771C104.157 221.947 104.474 222.164 104.767 222.422C105.06 222.674 105.317 222.958 105.54 223.274L101.04 228.697ZM102.271 223.749C102.159 223.708 102.048 223.682 101.937 223.67C101.831 223.658 101.72 223.652 101.603 223.652C101.274 223.652 100.964 223.714 100.671 223.837C100.384 223.954 100.132 224.124 99.915 224.347C99.7041 224.569 99.5371 224.839 99.4141 225.155C99.291 225.466 99.2295 225.817 99.2295 226.21C99.2295 226.298 99.2324 226.397 99.2383 226.509C99.25 226.62 99.2646 226.734 99.2822 226.852C99.3057 226.963 99.332 227.071 99.3613 227.177C99.3906 227.282 99.4287 227.376 99.4756 227.458L102.271 223.749ZM109.152 231H106.753V221.587H107.333L108.124 222.501C108.511 222.149 108.947 221.88 109.434 221.692C109.926 221.499 110.438 221.402 110.972 221.402C111.546 221.402 112.088 221.514 112.598 221.736C113.107 221.953 113.553 222.255 113.934 222.642C114.314 223.022 114.613 223.471 114.83 223.986C115.053 224.496 115.164 225.041 115.164 225.621V231H112.765V225.621C112.765 225.375 112.718 225.144 112.624 224.927C112.53 224.704 112.401 224.511 112.237 224.347C112.073 224.183 111.883 224.054 111.666 223.96C111.449 223.866 111.218 223.819 110.972 223.819C110.72 223.819 110.482 223.866 110.26 223.96C110.037 224.054 109.844 224.183 109.68 224.347C109.516 224.511 109.387 224.704 109.293 224.927C109.199 225.144 109.152 225.375 109.152 225.621V231ZM125.104 223.459L123.347 225.226C123.259 224.979 123.139 224.76 122.986 224.566C122.834 224.367 122.661 224.2 122.468 224.065C122.28 223.931 122.075 223.828 121.853 223.758C121.63 223.688 121.401 223.652 121.167 223.652C120.839 223.652 120.528 223.72 120.235 223.854C119.948 223.989 119.696 224.18 119.479 224.426C119.269 224.666 119.102 224.953 118.979 225.287C118.855 225.621 118.794 225.99 118.794 226.395C118.794 226.723 118.855 227.03 118.979 227.317C119.102 227.604 119.269 227.856 119.479 228.073C119.696 228.29 119.948 228.46 120.235 228.583C120.528 228.706 120.839 228.768 121.167 228.768C121.401 228.768 121.627 228.735 121.844 228.671C122.061 228.606 122.263 228.516 122.45 228.398C122.644 228.275 122.813 228.129 122.96 227.959C123.112 227.783 123.235 227.59 123.329 227.379L125.087 229.146C124.864 229.462 124.606 229.746 124.313 229.998C124.026 230.25 123.713 230.464 123.373 230.64C123.039 230.815 122.685 230.947 122.31 231.035C121.94 231.129 121.56 231.176 121.167 231.176C120.505 231.176 119.881 231.053 119.295 230.807C118.715 230.555 118.205 230.212 117.766 229.778C117.332 229.345 116.989 228.838 116.737 228.258C116.485 227.678 116.359 227.057 116.359 226.395C116.359 225.674 116.485 225 116.737 224.373C116.989 223.746 117.332 223.201 117.766 222.738C118.205 222.27 118.715 221.9 119.295 221.631C119.881 221.361 120.505 221.227 121.167 221.227C121.56 221.227 121.943 221.276 122.318 221.376C122.699 221.476 123.06 221.622 123.399 221.815C123.745 222.003 124.062 222.234 124.349 222.51C124.642 222.785 124.894 223.102 125.104 223.459ZM129.886 228.697C129.979 228.727 130.073 228.747 130.167 228.759C130.261 228.765 130.354 228.768 130.448 228.768C130.683 228.768 130.908 228.735 131.125 228.671C131.342 228.606 131.544 228.516 131.731 228.398C131.925 228.275 132.095 228.129 132.241 227.959C132.394 227.783 132.517 227.59 132.61 227.379L134.368 229.146C134.146 229.462 133.888 229.746 133.595 229.998C133.308 230.25 132.994 230.464 132.654 230.64C132.32 230.815 131.966 230.947 131.591 231.035C131.222 231.129 130.841 231.176 130.448 231.176C129.786 231.176 129.162 231.053 128.576 230.807C127.996 230.561 127.486 230.218 127.047 229.778C126.613 229.339 126.271 228.817 126.019 228.214C125.767 227.604 125.641 226.937 125.641 226.21C125.641 225.466 125.767 224.786 126.019 224.171C126.271 223.556 126.613 223.031 127.047 222.598C127.486 222.164 127.996 221.827 128.576 221.587C129.162 221.347 129.786 221.227 130.448 221.227C130.841 221.227 131.225 221.273 131.6 221.367C131.975 221.461 132.329 221.596 132.663 221.771C133.003 221.947 133.319 222.164 133.612 222.422C133.905 222.674 134.163 222.958 134.386 223.274L129.886 228.697ZM131.116 223.749C131.005 223.708 130.894 223.682 130.782 223.67C130.677 223.658 130.565 223.652 130.448 223.652C130.12 223.652 129.81 223.714 129.517 223.837C129.229 223.954 128.978 224.124 128.761 224.347C128.55 224.569 128.383 224.839 128.26 225.155C128.137 225.466 128.075 225.817 128.075 226.21C128.075 226.298 128.078 226.397 128.084 226.509C128.096 226.62 128.11 226.734 128.128 226.852C128.151 226.963 128.178 227.071 128.207 227.177C128.236 227.282 128.274 227.376 128.321 227.458L131.116 223.749Z" fill="white"/>
</svg>
