<svg width="180" height="234" viewBox="0 0 180 234" fill="none" xmlns="http://www.w3.org/2000/svg">
<path d="M60.7969 116H50.707V75.6758H45.6797V65.5859H60.7969V116ZM105.516 100.145C105.516 102.605 105.082 104.82 104.215 106.789C103.348 108.758 102.188 110.422 100.734 111.781C99.2812 113.141 97.5938 114.184 95.6719 114.91C93.7734 115.637 91.7812 116 89.6953 116H69.375V105.91H89.6953C90.375 105.91 91.0547 105.805 91.7344 105.594C92.4375 105.383 93.0586 105.043 93.5977 104.574C94.1602 104.105 94.6055 103.508 94.9336 102.781C95.2852 102.055 95.4609 101.176 95.4609 100.145C95.4609 99.207 95.2852 98.3867 94.9336 97.6836C94.6055 96.957 94.1602 96.3594 93.5977 95.8906C93.0586 95.3984 92.4375 95.0352 91.7344 94.8008C91.0547 94.543 90.375 94.4141 89.6953 94.4141H69.375L72.3281 65.5859H103.441V75.6758H81.3984L80.4844 84.3242H89.6953C91.7812 84.3242 93.7734 84.6875 95.6719 85.4141C97.5938 86.1406 99.2812 87.1953 100.734 88.5781C102.188 89.9375 103.348 91.6016 104.215 93.5703C105.082 95.5156 105.516 97.707 105.516 100.145ZM130.371 104.926H120.773V95.3281H110.789V85.7656H120.773V75.3945H130.371V85.7656H140.32V95.3281H130.371V104.926Z" fill="white"/>
<path d="M177.5 90C177.5 138.325 138.325 177.5 90 177.5C41.6751 177.5 2.5 138.325 2.5 90C2.5 41.6751 41.6751 2.5 90 2.5C138.325 2.5 177.5 41.6751 177.5 90Z" stroke="white" stroke-width="5"/>
<path d="M38.7422 208H36.2285V199C36.2285 198.824 36.1934 198.66 36.123 198.508C36.0586 198.355 35.9678 198.224 35.8506 198.112C35.7393 197.995 35.6074 197.904 35.4551 197.84C35.3027 197.775 35.1387 197.743 34.9629 197.743C34.7871 197.743 34.623 197.775 34.4707 197.84C34.3184 197.904 34.1836 197.995 34.0664 198.112C33.9551 198.224 33.8672 198.355 33.8027 198.508C33.7383 198.66 33.7061 198.824 33.7061 199V208H31.1836V199C31.1836 198.824 31.1514 198.66 31.0869 198.508C31.0225 198.355 30.9316 198.224 30.8145 198.112C30.7031 197.995 30.5713 197.904 30.4189 197.84C30.2666 197.775 30.1025 197.743 29.9268 197.743C29.751 197.743 29.5869 197.775 29.4346 197.84C29.2822 197.904 29.1475 197.995 29.0303 198.112C28.9189 198.224 28.8311 198.355 28.7666 198.508C28.7021 198.66 28.6699 198.824 28.6699 199V208H26.1475V199C26.1475 198.479 26.2441 197.989 26.4375 197.532C26.6367 197.069 26.9062 196.668 27.2461 196.328C27.5918 195.982 27.9932 195.713 28.4502 195.52C28.9131 195.32 29.4053 195.221 29.9268 195.221C30.3955 195.221 30.8467 195.306 31.2803 195.476C31.7139 195.64 32.1035 195.88 32.4492 196.196C32.7949 195.88 33.1816 195.64 33.6094 195.476C34.043 195.306 34.4941 195.221 34.9629 195.221C35.4844 195.221 35.9736 195.32 36.4307 195.52C36.8936 195.713 37.2949 195.982 37.6348 196.328C37.9805 196.668 38.25 197.069 38.4434 197.532C38.6426 197.989 38.7422 198.479 38.7422 199V208ZM43.5762 196.029C43.5762 196.252 43.5322 196.46 43.4443 196.653C43.3623 196.847 43.248 197.017 43.1016 197.163C42.9551 197.304 42.7822 197.418 42.583 197.506C42.3896 197.588 42.1816 197.629 41.959 197.629C41.7363 197.629 41.5254 197.588 41.3262 197.506C41.1328 197.418 40.9629 197.304 40.8164 197.163C40.6758 197.017 40.5615 196.847 40.4736 196.653C40.3916 196.46 40.3506 196.252 40.3506 196.029C40.3506 195.812 40.3916 195.607 40.4736 195.414C40.5615 195.215 40.6758 195.045 40.8164 194.904C40.9629 194.758 41.1328 194.644 41.3262 194.562C41.5254 194.474 41.7363 194.43 41.959 194.43C42.1816 194.43 42.3896 194.474 42.583 194.562C42.7822 194.644 42.9551 194.758 43.1016 194.904C43.248 195.045 43.3623 195.215 43.4443 195.414C43.5322 195.607 43.5762 195.812 43.5762 196.029ZM43.1631 208H40.7461V198.587H43.1631V208ZM47.417 208H45V194.843H47.417V208ZM51.6709 208H49.2539V194.843H51.6709V208ZM56.3379 196.029C56.3379 196.252 56.2939 196.46 56.2061 196.653C56.124 196.847 56.0098 197.017 55.8633 197.163C55.7168 197.304 55.5439 197.418 55.3447 197.506C55.1514 197.588 54.9434 197.629 54.7207 197.629C54.498 197.629 54.2871 197.588 54.0879 197.506C53.8945 197.418 53.7246 197.304 53.5781 197.163C53.4375 197.017 53.3232 196.847 53.2354 196.653C53.1533 196.46 53.1123 196.252 53.1123 196.029C53.1123 195.812 53.1533 195.607 53.2354 195.414C53.3232 195.215 53.4375 195.045 53.5781 194.904C53.7246 194.758 53.8945 194.644 54.0879 194.562C54.2871 194.474 54.498 194.43 54.7207 194.43C54.9434 194.43 55.1514 194.474 55.3447 194.562C55.5439 194.644 55.7168 194.758 55.8633 194.904C56.0098 195.045 56.124 195.215 56.2061 195.414C56.2939 195.607 56.3379 195.812 56.3379 196.029ZM55.9248 208H53.5078V198.587H55.9248V208ZM66.8584 203.21C66.8584 203.913 66.7324 204.569 66.4805 205.179C66.2285 205.782 65.8857 206.307 65.4521 206.752C65.0186 207.191 64.5088 207.54 63.9229 207.798C63.3428 208.05 62.7188 208.176 62.0508 208.176C61.3887 208.176 60.7646 208.05 60.1787 207.798C59.5986 207.54 59.0889 207.191 58.6494 206.752C58.2158 206.307 57.873 205.782 57.6211 205.179C57.3691 204.569 57.2432 203.913 57.2432 203.21C57.2432 202.495 57.3691 201.833 57.6211 201.224C57.873 200.614 58.2158 200.09 58.6494 199.65C59.0889 199.205 59.5986 198.856 60.1787 198.604C60.7646 198.353 61.3887 198.227 62.0508 198.227C62.7188 198.227 63.3428 198.347 63.9229 198.587C64.5088 198.821 65.0186 199.158 65.4521 199.598C65.8857 200.031 66.2285 200.556 66.4805 201.171C66.7324 201.78 66.8584 202.46 66.8584 203.21ZM64.4414 203.21C64.4414 202.823 64.377 202.475 64.248 202.164C64.125 201.848 63.9551 201.578 63.7383 201.355C63.5215 201.127 63.2666 200.954 62.9736 200.837C62.6865 200.714 62.3789 200.652 62.0508 200.652C61.7227 200.652 61.4121 200.714 61.1191 200.837C60.832 200.954 60.5801 201.127 60.3633 201.355C60.1523 201.578 59.9854 201.848 59.8623 202.164C59.7393 202.475 59.6777 202.823 59.6777 203.21C59.6777 203.573 59.7393 203.91 59.8623 204.221C59.9854 204.531 60.1523 204.801 60.3633 205.029C60.5801 205.258 60.832 205.439 61.1191 205.574C61.4121 205.703 61.7227 205.768 62.0508 205.768C62.3789 205.768 62.6865 205.706 62.9736 205.583C63.2666 205.46 63.5215 205.287 63.7383 205.064C63.9551 204.842 64.125 204.572 64.248 204.256C64.377 203.939 64.4414 203.591 64.4414 203.21ZM70.585 208H68.1855V198.587H68.7656L69.5566 199.501C69.9434 199.149 70.3799 198.88 70.8662 198.692C71.3584 198.499 71.8711 198.402 72.4043 198.402C72.9785 198.402 73.5205 198.514 74.0303 198.736C74.54 198.953 74.9854 199.255 75.3662 199.642C75.7471 200.022 76.0459 200.471 76.2627 200.986C76.4854 201.496 76.5967 202.041 76.5967 202.621V208H74.1973V202.621C74.1973 202.375 74.1504 202.144 74.0566 201.927C73.9629 201.704 73.834 201.511 73.6699 201.347C73.5059 201.183 73.3154 201.054 73.0986 200.96C72.8818 200.866 72.6504 200.819 72.4043 200.819C72.1523 200.819 71.915 200.866 71.6924 200.96C71.4697 201.054 71.2764 201.183 71.1123 201.347C70.9482 201.511 70.8193 201.704 70.7256 201.927C70.6318 202.144 70.585 202.375 70.585 202.621V208ZM83.4785 208H77.9941V205.609H83.4785C83.6426 205.609 83.7832 205.551 83.9004 205.434C84.0176 205.316 84.0762 205.176 84.0762 205.012C84.0762 204.842 84.0176 204.73 83.9004 204.678C83.7832 204.625 83.6426 204.599 83.4785 204.599H80.9824C80.5664 204.599 80.1768 204.52 79.8135 204.361C79.4502 204.203 79.1338 203.989 78.8643 203.72C78.5947 203.444 78.3809 203.125 78.2227 202.762C78.0703 202.398 77.9941 202.009 77.9941 201.593C77.9941 201.177 78.0703 200.787 78.2227 200.424C78.3809 200.061 78.5947 199.744 78.8643 199.475C79.1338 199.205 79.4502 198.994 79.8135 198.842C80.1768 198.684 80.5664 198.604 80.9824 198.604H85.8428V200.995H80.9824C80.8184 200.995 80.6777 201.054 80.5605 201.171C80.4434 201.288 80.3848 201.429 80.3848 201.593C80.3848 201.763 80.4434 201.909 80.5605 202.032C80.6777 202.149 80.8184 202.208 80.9824 202.208H83.4785C83.8887 202.208 84.2754 202.278 84.6387 202.419C85.002 202.554 85.3184 202.744 85.5879 202.99C85.8574 203.236 86.0713 203.532 86.2295 203.878C86.3877 204.224 86.4668 204.602 86.4668 205.012C86.4668 205.428 86.3877 205.817 86.2295 206.181C86.0713 206.538 85.8574 206.854 85.5879 207.13C85.3184 207.399 85.002 207.613 84.6387 207.771C84.2754 207.924 83.8887 208 83.4785 208ZM103.113 206.708C102.527 207.212 101.871 207.599 101.145 207.868C100.418 208.138 99.665 208.272 98.8857 208.272C98.2881 208.272 97.7109 208.193 97.1543 208.035C96.6035 207.883 96.085 207.666 95.5986 207.385C95.1182 207.098 94.6787 206.755 94.2803 206.356C93.8818 205.958 93.5391 205.519 93.252 205.038C92.9707 204.552 92.751 204.033 92.5928 203.482C92.4404 202.926 92.3643 202.349 92.3643 201.751C92.3643 201.153 92.4404 200.576 92.5928 200.02C92.751 199.463 92.9707 198.944 93.252 198.464C93.5391 197.978 93.8818 197.535 94.2803 197.137C94.6787 196.738 95.1182 196.398 95.5986 196.117C96.085 195.83 96.6035 195.61 97.1543 195.458C97.7109 195.3 98.2881 195.221 98.8857 195.221C99.665 195.221 100.418 195.355 101.145 195.625C101.871 195.889 102.527 196.275 103.113 196.785L101.777 198.982C101.408 198.584 100.972 198.279 100.468 198.068C99.9639 197.852 99.4365 197.743 98.8857 197.743C98.3291 197.743 97.8076 197.849 97.3213 198.06C96.835 198.271 96.4102 198.558 96.0469 198.921C95.6836 199.278 95.3965 199.703 95.1855 200.195C94.9746 200.682 94.8691 201.2 94.8691 201.751C94.8691 202.302 94.9746 202.82 95.1855 203.307C95.3965 203.787 95.6836 204.209 96.0469 204.572C96.4102 204.936 96.835 205.223 97.3213 205.434C97.8076 205.645 98.3291 205.75 98.8857 205.75C99.4365 205.75 99.9639 205.645 100.468 205.434C100.972 205.217 101.408 204.909 101.777 204.511L103.113 206.708ZM106.743 208H104.326V194.843H106.743V208ZM117.677 203.21C117.677 203.913 117.551 204.569 117.299 205.179C117.047 205.782 116.704 206.307 116.271 206.752C115.837 207.191 115.327 207.54 114.741 207.798C114.161 208.05 113.537 208.176 112.869 208.176C112.207 208.176 111.583 208.05 110.997 207.798C110.417 207.54 109.907 207.191 109.468 206.752C109.034 206.307 108.691 205.782 108.439 205.179C108.188 204.569 108.062 203.913 108.062 203.21C108.062 202.495 108.188 201.833 108.439 201.224C108.691 200.614 109.034 200.09 109.468 199.65C109.907 199.205 110.417 198.856 110.997 198.604C111.583 198.353 112.207 198.227 112.869 198.227C113.537 198.227 114.161 198.347 114.741 198.587C115.327 198.821 115.837 199.158 116.271 199.598C116.704 200.031 117.047 200.556 117.299 201.171C117.551 201.78 117.677 202.46 117.677 203.21ZM115.26 203.21C115.26 202.823 115.195 202.475 115.066 202.164C114.943 201.848 114.773 201.578 114.557 201.355C114.34 201.127 114.085 200.954 113.792 200.837C113.505 200.714 113.197 200.652 112.869 200.652C112.541 200.652 112.23 200.714 111.938 200.837C111.65 200.954 111.398 201.127 111.182 201.355C110.971 201.578 110.804 201.848 110.681 202.164C110.558 202.475 110.496 202.823 110.496 203.21C110.496 203.573 110.558 203.91 110.681 204.221C110.804 204.531 110.971 204.801 111.182 205.029C111.398 205.258 111.65 205.439 111.938 205.574C112.23 205.703 112.541 205.768 112.869 205.768C113.197 205.768 113.505 205.706 113.792 205.583C114.085 205.46 114.34 205.287 114.557 205.064C114.773 204.842 114.943 204.572 115.066 204.256C115.195 203.939 115.26 203.591 115.26 203.21ZM123.653 208C123.073 208 122.528 207.892 122.019 207.675C121.509 207.452 121.061 207.15 120.674 206.77C120.293 206.383 119.991 205.935 119.769 205.425C119.552 204.915 119.443 204.37 119.443 203.79V200.995H118.274V198.604H119.443V194.843H121.834V198.604H125.473V200.995H121.834V203.79C121.834 204.042 121.881 204.279 121.975 204.502C122.068 204.719 122.197 204.909 122.361 205.073C122.525 205.237 122.719 205.369 122.941 205.469C123.164 205.562 123.401 205.609 123.653 205.609H125.473V208H123.653ZM129.226 208H126.826V194.843H129.226V199C129.513 198.783 129.809 198.631 130.113 198.543C130.418 198.449 130.729 198.402 131.045 198.402C131.625 198.402 132.17 198.514 132.68 198.736C133.189 198.953 133.632 199.255 134.007 199.642C134.388 200.022 134.687 200.471 134.903 200.986C135.126 201.496 135.237 202.041 135.237 202.621V208H132.82V202.621H132.838C132.838 202.375 132.791 202.144 132.697 201.927C132.604 201.704 132.475 201.511 132.311 201.347C132.146 201.183 131.956 201.054 131.739 200.96C131.522 200.866 131.291 200.819 131.045 200.819C130.793 200.819 130.556 200.866 130.333 200.96C130.11 201.054 129.917 201.183 129.753 201.347C129.589 201.511 129.46 201.704 129.366 201.927C129.272 202.144 129.226 202.375 129.226 202.621V208ZM140.695 205.697C140.789 205.727 140.883 205.747 140.977 205.759C141.07 205.765 141.164 205.768 141.258 205.768C141.492 205.768 141.718 205.735 141.935 205.671C142.151 205.606 142.354 205.516 142.541 205.398C142.734 205.275 142.904 205.129 143.051 204.959C143.203 204.783 143.326 204.59 143.42 204.379L145.178 206.146C144.955 206.462 144.697 206.746 144.404 206.998C144.117 207.25 143.804 207.464 143.464 207.64C143.13 207.815 142.775 207.947 142.4 208.035C142.031 208.129 141.65 208.176 141.258 208.176C140.596 208.176 139.972 208.053 139.386 207.807C138.806 207.561 138.296 207.218 137.856 206.778C137.423 206.339 137.08 205.817 136.828 205.214C136.576 204.604 136.45 203.937 136.45 203.21C136.45 202.466 136.576 201.786 136.828 201.171C137.08 200.556 137.423 200.031 137.856 199.598C138.296 199.164 138.806 198.827 139.386 198.587C139.972 198.347 140.596 198.227 141.258 198.227C141.65 198.227 142.034 198.273 142.409 198.367C142.784 198.461 143.139 198.596 143.473 198.771C143.812 198.947 144.129 199.164 144.422 199.422C144.715 199.674 144.973 199.958 145.195 200.274L140.695 205.697ZM141.926 200.749C141.814 200.708 141.703 200.682 141.592 200.67C141.486 200.658 141.375 200.652 141.258 200.652C140.93 200.652 140.619 200.714 140.326 200.837C140.039 200.954 139.787 201.124 139.57 201.347C139.359 201.569 139.192 201.839 139.069 202.155C138.946 202.466 138.885 202.817 138.885 203.21C138.885 203.298 138.888 203.397 138.894 203.509C138.905 203.62 138.92 203.734 138.938 203.852C138.961 203.963 138.987 204.071 139.017 204.177C139.046 204.282 139.084 204.376 139.131 204.458L141.926 200.749ZM151.576 208H146.092V205.609H151.576C151.74 205.609 151.881 205.551 151.998 205.434C152.115 205.316 152.174 205.176 152.174 205.012C152.174 204.842 152.115 204.73 151.998 204.678C151.881 204.625 151.74 204.599 151.576 204.599H149.08C148.664 204.599 148.274 204.52 147.911 204.361C147.548 204.203 147.231 203.989 146.962 203.72C146.692 203.444 146.479 203.125 146.32 202.762C146.168 202.398 146.092 202.009 146.092 201.593C146.092 201.177 146.168 200.787 146.32 200.424C146.479 200.061 146.692 199.744 146.962 199.475C147.231 199.205 147.548 198.994 147.911 198.842C148.274 198.684 148.664 198.604 149.08 198.604H153.94V200.995H149.08C148.916 200.995 148.775 201.054 148.658 201.171C148.541 201.288 148.482 201.429 148.482 201.593C148.482 201.763 148.541 201.909 148.658 202.032C148.775 202.149 148.916 202.208 149.08 202.208H151.576C151.986 202.208 152.373 202.278 152.736 202.419C153.1 202.554 153.416 202.744 153.686 202.99C153.955 203.236 154.169 203.532 154.327 203.878C154.485 204.224 154.564 204.602 154.564 205.012C154.564 205.428 154.485 205.817 154.327 206.181C154.169 206.538 153.955 206.854 153.686 207.13C153.416 207.399 153.1 207.613 152.736 207.771C152.373 207.924 151.986 208 151.576 208ZM52.2334 219.919V224.964H54.7559C55.1016 224.964 55.4268 224.899 55.7314 224.771C56.0361 224.636 56.3027 224.454 56.5312 224.226C56.7598 223.997 56.9385 223.73 57.0674 223.426C57.2021 223.115 57.2695 222.787 57.2695 222.441C57.2695 222.096 57.2021 221.771 57.0674 221.466C56.9385 221.155 56.7598 220.886 56.5312 220.657C56.3027 220.429 56.0361 220.25 55.7314 220.121C55.4268 219.986 55.1016 219.919 54.7559 219.919H52.2334ZM52.2334 230H49.7109V217.396H54.7559C55.2188 217.396 55.6641 217.458 56.0918 217.581C56.5195 217.698 56.918 217.868 57.2871 218.091C57.6621 218.308 58.002 218.571 58.3066 218.882C58.6172 219.187 58.8809 219.526 59.0977 219.901C59.3203 220.276 59.4902 220.678 59.6074 221.105C59.7305 221.533 59.792 221.979 59.792 222.441C59.792 223.133 59.6602 223.786 59.3965 224.401C59.1328 225.011 58.7725 225.544 58.3154 226.001C57.8584 226.458 57.3223 226.818 56.707 227.082C56.0977 227.346 55.4473 227.478 54.7559 227.478H52.2334V230ZM63.8525 218.029C63.8525 218.252 63.8086 218.46 63.7207 218.653C63.6387 218.847 63.5244 219.017 63.3779 219.163C63.2314 219.304 63.0586 219.418 62.8594 219.506C62.666 219.588 62.458 219.629 62.2354 219.629C62.0127 219.629 61.8018 219.588 61.6025 219.506C61.4092 219.418 61.2393 219.304 61.0928 219.163C60.9521 219.017 60.8379 218.847 60.75 218.653C60.668 218.46 60.627 218.252 60.627 218.029C60.627 217.812 60.668 217.607 60.75 217.414C60.8379 217.215 60.9521 217.045 61.0928 216.904C61.2393 216.758 61.4092 216.644 61.6025 216.562C61.8018 216.474 62.0127 216.43 62.2354 216.43C62.458 216.43 62.666 216.474 62.8594 216.562C63.0586 216.644 63.2314 216.758 63.3779 216.904C63.5244 217.045 63.6387 217.215 63.7207 217.414C63.8086 217.607 63.8525 217.812 63.8525 218.029ZM63.4395 230H61.0225V220.587H63.4395V230ZM73.5029 222.459L71.7451 224.226C71.6572 223.979 71.5371 223.76 71.3848 223.566C71.2324 223.367 71.0596 223.2 70.8662 223.065C70.6787 222.931 70.4736 222.828 70.251 222.758C70.0283 222.688 69.7998 222.652 69.5654 222.652C69.2373 222.652 68.9268 222.72 68.6338 222.854C68.3467 222.989 68.0947 223.18 67.8779 223.426C67.667 223.666 67.5 223.953 67.377 224.287C67.2539 224.621 67.1924 224.99 67.1924 225.395C67.1924 225.723 67.2539 226.03 67.377 226.317C67.5 226.604 67.667 226.856 67.8779 227.073C68.0947 227.29 68.3467 227.46 68.6338 227.583C68.9268 227.706 69.2373 227.768 69.5654 227.768C69.7998 227.768 70.0254 227.735 70.2422 227.671C70.459 227.606 70.6611 227.516 70.8486 227.398C71.042 227.275 71.2119 227.129 71.3584 226.959C71.5107 226.783 71.6338 226.59 71.7275 226.379L73.4854 228.146C73.2627 228.462 73.0049 228.746 72.7119 228.998C72.4248 229.25 72.1113 229.464 71.7715 229.64C71.4375 229.815 71.083 229.947 70.708 230.035C70.3389 230.129 69.958 230.176 69.5654 230.176C68.9033 230.176 68.2793 230.053 67.6934 229.807C67.1133 229.555 66.6035 229.212 66.1641 228.778C65.7305 228.345 65.3877 227.838 65.1357 227.258C64.8838 226.678 64.7578 226.057 64.7578 225.395C64.7578 224.674 64.8838 224 65.1357 223.373C65.3877 222.746 65.7305 222.201 66.1641 221.738C66.6035 221.27 67.1133 220.9 67.6934 220.631C68.2793 220.361 68.9033 220.227 69.5654 220.227C69.958 220.227 70.3418 220.276 70.7168 220.376C71.0977 220.476 71.458 220.622 71.7979 220.815C72.1436 221.003 72.46 221.234 72.7471 221.51C73.04 221.785 73.292 222.102 73.5029 222.459ZM77.0977 230H74.6807V216.843H77.0977V225.14L80.6748 220.604H83.4346L80.3145 224.524L83.4346 230H80.6748L78.7676 226.581L77.0977 228.796V230ZM87.8291 227.697C87.9229 227.727 88.0166 227.747 88.1104 227.759C88.2041 227.765 88.2979 227.768 88.3916 227.768C88.626 227.768 88.8516 227.735 89.0684 227.671C89.2852 227.606 89.4873 227.516 89.6748 227.398C89.8682 227.275 90.0381 227.129 90.1846 226.959C90.3369 226.783 90.46 226.59 90.5537 226.379L92.3115 228.146C92.0889 228.462 91.8311 228.746 91.5381 228.998C91.251 229.25 90.9375 229.464 90.5977 229.64C90.2637 229.815 89.9092 229.947 89.5342 230.035C89.165 230.129 88.7842 230.176 88.3916 230.176C87.7295 230.176 87.1055 230.053 86.5195 229.807C85.9395 229.561 85.4297 229.218 84.9902 228.778C84.5566 228.339 84.2139 227.817 83.9619 227.214C83.71 226.604 83.584 225.937 83.584 225.21C83.584 224.466 83.71 223.786 83.9619 223.171C84.2139 222.556 84.5566 222.031 84.9902 221.598C85.4297 221.164 85.9395 220.827 86.5195 220.587C87.1055 220.347 87.7295 220.227 88.3916 220.227C88.7842 220.227 89.168 220.273 89.543 220.367C89.918 220.461 90.2725 220.596 90.6064 220.771C90.9463 220.947 91.2627 221.164 91.5557 221.422C91.8486 221.674 92.1064 221.958 92.3291 222.274L87.8291 227.697ZM89.0596 222.749C88.9482 222.708 88.8369 222.682 88.7256 222.67C88.6201 222.658 88.5088 222.652 88.3916 222.652C88.0635 222.652 87.7529 222.714 87.46 222.837C87.1729 222.954 86.9209 223.124 86.7041 223.347C86.4932 223.569 86.3262 223.839 86.2031 224.155C86.0801 224.466 86.0186 224.817 86.0186 225.21C86.0186 225.298 86.0215 225.397 86.0273 225.509C86.0391 225.62 86.0537 225.734 86.0713 225.852C86.0947 225.963 86.1211 226.071 86.1504 226.177C86.1797 226.282 86.2178 226.376 86.2646 226.458L89.0596 222.749ZM102.568 230H101.988L101.057 228.708C100.828 228.913 100.585 229.106 100.327 229.288C100.075 229.464 99.8086 229.619 99.5273 229.754C99.2461 229.883 98.9561 229.985 98.6572 230.062C98.3643 230.138 98.0654 230.176 97.7607 230.176C97.0986 230.176 96.4746 230.053 95.8887 229.807C95.3086 229.555 94.7988 229.209 94.3594 228.77C93.9258 228.324 93.583 227.8 93.3311 227.196C93.0791 226.587 92.9531 225.925 92.9531 225.21C92.9531 224.501 93.0791 223.842 93.3311 223.232C93.583 222.623 93.9258 222.096 94.3594 221.65C94.7988 221.205 95.3086 220.856 95.8887 220.604C96.4746 220.353 97.0986 220.227 97.7607 220.227C97.9717 220.227 98.1885 220.244 98.4111 220.279C98.6396 220.314 98.8594 220.373 99.0703 220.455C99.2871 220.531 99.4893 220.634 99.6768 220.763C99.8643 220.892 100.022 221.05 100.151 221.237V216.843H102.568V230ZM100.151 225.21C100.151 224.882 100.087 224.565 99.958 224.261C99.835 223.95 99.665 223.678 99.4482 223.443C99.2314 223.203 98.9766 223.013 98.6836 222.872C98.3965 222.726 98.0889 222.652 97.7607 222.652C97.4326 222.652 97.1221 222.711 96.8291 222.828C96.542 222.945 96.29 223.115 96.0732 223.338C95.8623 223.555 95.6953 223.821 95.5723 224.138C95.4492 224.454 95.3877 224.812 95.3877 225.21C95.3877 225.556 95.4492 225.884 95.5723 226.194C95.6953 226.505 95.8623 226.777 96.0732 227.012C96.29 227.246 96.542 227.431 96.8291 227.565C97.1221 227.7 97.4326 227.768 97.7607 227.768C98.0889 227.768 98.3965 227.697 98.6836 227.557C98.9766 227.41 99.2314 227.22 99.4482 226.985C99.665 226.745 99.835 226.473 99.958 226.168C100.087 225.857 100.151 225.538 100.151 225.21ZM119.646 224.964C119.646 225.661 119.514 226.317 119.25 226.933C118.986 227.542 118.626 228.075 118.169 228.532C117.712 228.983 117.176 229.341 116.561 229.604C115.951 229.868 115.298 230 114.601 230C113.903 230 113.247 229.868 112.632 229.604C112.022 229.341 111.489 228.983 111.032 228.532C110.581 228.075 110.224 227.542 109.96 226.933C109.696 226.317 109.564 225.661 109.564 224.964V217.396H112.078V224.964C112.078 225.31 112.143 225.635 112.271 225.939C112.406 226.244 112.588 226.511 112.816 226.739C113.045 226.968 113.312 227.149 113.616 227.284C113.927 227.413 114.255 227.478 114.601 227.478C114.946 227.478 115.271 227.413 115.576 227.284C115.887 227.149 116.156 226.968 116.385 226.739C116.613 226.511 116.792 226.244 116.921 225.939C117.056 225.635 117.123 225.31 117.123 224.964V217.396H119.646V224.964ZM123.82 233.586H121.403V220.587H121.983L122.941 221.721C123.158 221.516 123.396 221.322 123.653 221.141C123.911 220.959 124.178 220.804 124.453 220.675C124.734 220.54 125.024 220.435 125.323 220.358C125.622 220.282 125.924 220.244 126.229 220.244C126.891 220.244 127.512 220.364 128.092 220.604C128.678 220.839 129.188 221.173 129.621 221.606C130.061 222.04 130.406 222.564 130.658 223.18C130.91 223.789 131.036 224.466 131.036 225.21C131.036 225.983 130.91 226.681 130.658 227.302C130.406 227.917 130.061 228.441 129.621 228.875C129.188 229.303 128.678 229.631 128.092 229.859C127.512 230.088 126.891 230.202 126.229 230.202C126.018 230.202 125.807 230.179 125.596 230.132C125.391 230.085 125.186 230.023 124.98 229.947C124.781 229.865 124.582 229.774 124.383 229.675C124.189 229.575 124.002 229.473 123.82 229.367V233.586ZM128.628 225.21C128.628 224.812 128.563 224.454 128.435 224.138C128.312 223.821 128.142 223.555 127.925 223.338C127.708 223.115 127.453 222.945 127.16 222.828C126.867 222.711 126.557 222.652 126.229 222.652C125.9 222.652 125.59 222.711 125.297 222.828C125.01 222.945 124.758 223.115 124.541 223.338C124.324 223.555 124.151 223.821 124.022 224.138C123.899 224.454 123.838 224.812 123.838 225.21C123.838 225.591 123.899 225.939 124.022 226.256C124.151 226.572 124.324 226.842 124.541 227.064C124.758 227.287 125.01 227.46 125.297 227.583C125.59 227.706 125.9 227.768 126.229 227.768C126.557 227.768 126.867 227.706 127.16 227.583C127.453 227.46 127.708 227.287 127.925 227.064C128.142 226.842 128.312 226.572 128.435 226.256C128.563 225.939 128.628 225.591 128.628 225.21Z" fill="white"/>
</svg>
