<svg width="260" height="46" viewBox="0 0 260 46" fill="none" xmlns="http://www.w3.org/2000/svg">
<path d="M24.0547 36H0.523438V2.39062H7.25V29.2734H24.0547V36ZM44.5859 33.0703C44.0703 33.5391 43.5156 33.9844 42.9219 34.4062C42.3438 34.8125 41.7344 35.1719 41.0938 35.4844C40.4531 35.7812 39.7891 36.0156 39.1016 36.1875C38.4297 36.375 37.7422 36.4688 37.0391 36.4688C35.4922 36.4688 34.0391 36.1953 32.6797 35.6484C31.3203 35.1016 30.125 34.3281 29.0938 33.3281C28.0781 32.3125 27.2734 31.0859 26.6797 29.6484C26.1016 28.1953 25.8125 26.5703 25.8125 24.7734V10.8984H32.1875V24.7734C32.1875 25.6172 32.3125 26.375 32.5625 27.0469C32.8281 27.7031 33.1797 28.2578 33.6172 28.7109C34.0547 29.1641 34.5625 29.5078 35.1406 29.7422C35.7344 29.9766 36.3672 30.0938 37.0391 30.0938C37.6953 30.0938 38.3125 29.9453 38.8906 29.6484C39.4844 29.3359 40 28.9297 40.4375 28.4297C40.875 27.9297 41.2188 27.3672 41.4688 26.7422C41.7188 26.1016 41.8438 25.4453 41.8438 24.7734V10.8984H48.2422V36H46.6953L44.5859 33.0703ZM76.25 36H68.4219L63.4297 28.3125L58.3906 36H50.5625L59.7266 23.1328L50.5625 10.7578H58.3906L63.4297 17.9531L68.4219 10.7578H76.25L67.0625 23.1328L76.25 36ZM102.758 36H79.2266V2.39062H85.9531V29.2734H102.758V36ZM129.242 36H127.695L125.211 32.5547C124.602 33.1016 123.953 33.6172 123.266 34.1016C122.594 34.5703 121.883 34.9844 121.133 35.3438C120.383 35.6875 119.609 35.9609 118.812 36.1641C118.031 36.3672 117.234 36.4688 116.422 36.4688C114.656 36.4688 112.992 36.1719 111.43 35.5781C109.883 34.9844 108.523 34.125 107.352 33C106.195 31.8594 105.281 30.4688 104.609 28.8281C103.938 27.1875 103.602 25.3203 103.602 23.2266C103.602 21.2734 103.938 19.4844 104.609 17.8594C105.281 16.2188 106.195 14.8125 107.352 13.6406C108.523 12.4688 109.883 11.5625 111.43 10.9219C112.992 10.2656 114.656 9.9375 116.422 9.9375C117.234 9.9375 118.039 10.0391 118.836 10.2422C119.633 10.4453 120.406 10.7266 121.156 11.0859C121.906 11.4453 122.617 11.8672 123.289 12.3516C123.977 12.8359 124.617 13.3594 125.211 13.9219L127.695 10.9453H129.242V36ZM122.797 23.2266C122.797 22.3516 122.625 21.5078 122.281 20.6953C121.953 19.8672 121.5 19.1406 120.922 18.5156C120.344 17.875 119.664 17.3672 118.883 16.9922C118.117 16.6016 117.297 16.4062 116.422 16.4062C115.547 16.4062 114.719 16.5547 113.938 16.8516C113.172 17.1484 112.5 17.5859 111.922 18.1641C111.359 18.7422 110.914 19.4609 110.586 20.3203C110.258 21.1641 110.094 22.1328 110.094 23.2266C110.094 24.3203 110.258 25.2969 110.586 26.1562C110.914 27 111.359 27.7109 111.922 28.2891C112.5 28.8672 113.172 29.3047 113.938 29.6016C114.719 29.8984 115.547 30.0469 116.422 30.0469C117.297 30.0469 118.117 29.8594 118.883 29.4844C119.664 29.0938 120.344 28.5859 120.922 27.9609C121.5 27.3203 121.953 26.5938 122.281 25.7812C122.625 24.9531 122.797 24.1016 122.797 23.2266ZM152.586 33.0703C152.07 33.5391 151.516 33.9844 150.922 34.4062C150.344 34.8125 149.734 35.1719 149.094 35.4844C148.453 35.7812 147.789 36.0156 147.102 36.1875C146.43 36.375 145.742 36.4688 145.039 36.4688C143.492 36.4688 142.039 36.1953 140.68 35.6484C139.32 35.1016 138.125 34.3281 137.094 33.3281C136.078 32.3125 135.273 31.0859 134.68 29.6484C134.102 28.1953 133.812 26.5703 133.812 24.7734V10.8984H140.188V24.7734C140.188 25.6172 140.312 26.375 140.562 27.0469C140.828 27.7031 141.18 28.2578 141.617 28.7109C142.055 29.1641 142.562 29.5078 143.141 29.7422C143.734 29.9766 144.367 30.0938 145.039 30.0938C145.695 30.0938 146.312 29.9453 146.891 29.6484C147.484 29.3359 148 28.9297 148.438 28.4297C148.875 27.9297 149.219 27.3672 149.469 26.7422C149.719 26.1016 149.844 25.4453 149.844 24.7734V10.8984H156.242V36H154.695L152.586 33.0703ZM167.539 36H161.141V10.8984H162.688L164.797 13.3359C165.828 12.3984 166.992 11.6797 168.289 11.1797C169.602 10.6641 170.969 10.4062 172.391 10.4062C173.922 10.4062 175.367 10.7031 176.727 11.2969C178.086 11.875 179.273 12.6797 180.289 13.7109C181.305 14.7266 182.102 15.9219 182.68 17.2969C183.273 18.6562 183.57 20.1094 183.57 21.6562V36H177.172V21.6562C177.172 21 177.047 20.3828 176.797 19.8047C176.547 19.2109 176.203 18.6953 175.766 18.2578C175.328 17.8203 174.82 17.4766 174.242 17.2266C173.664 16.9766 173.047 16.8516 172.391 16.8516C171.719 16.8516 171.086 16.9766 170.492 17.2266C169.898 17.4766 169.383 17.8203 168.945 18.2578C168.508 18.6953 168.164 19.2109 167.914 19.8047C167.664 20.3828 167.539 21 167.539 21.6562V36ZM212.398 36H210.852L208.367 32.5547C207.758 33.1016 207.109 33.6172 206.422 34.1016C205.75 34.5703 205.039 34.9844 204.289 35.3438C203.539 35.6875 202.766 35.9609 201.969 36.1641C201.188 36.3672 200.391 36.4688 199.578 36.4688C197.812 36.4688 196.148 36.1406 194.586 35.4844C193.039 34.8125 191.68 33.8906 190.508 32.7188C189.352 31.5312 188.438 30.1328 187.766 28.5234C187.094 26.8984 186.758 25.1328 186.758 23.2266C186.758 21.3359 187.094 19.5781 187.766 17.9531C188.438 16.3281 189.352 14.9219 190.508 13.7344C191.68 12.5469 193.039 11.6172 194.586 10.9453C196.148 10.2734 197.812 9.9375 199.578 9.9375C200.141 9.9375 200.719 9.98438 201.312 10.0781C201.922 10.1719 202.508 10.3281 203.07 10.5469C203.648 10.75 204.188 11.0234 204.688 11.3672C205.188 11.7109 205.609 12.1328 205.953 12.6328V0.914062H212.398V36ZM205.953 23.2266C205.953 22.3516 205.781 21.5078 205.438 20.6953C205.109 19.8672 204.656 19.1406 204.078 18.5156C203.5 17.875 202.82 17.3672 202.039 16.9922C201.273 16.6016 200.453 16.4062 199.578 16.4062C198.703 16.4062 197.875 16.5625 197.094 16.875C196.328 17.1875 195.656 17.6406 195.078 18.2344C194.516 18.8125 194.07 19.5234 193.742 20.3672C193.414 21.2109 193.25 22.1641 193.25 23.2266C193.25 24.1484 193.414 25.0234 193.742 25.8516C194.07 26.6797 194.516 27.4062 195.078 28.0312C195.656 28.6562 196.328 29.1484 197.094 29.5078C197.875 29.8672 198.703 30.0469 199.578 30.0469C200.453 30.0469 201.273 29.8594 202.039 29.4844C202.82 29.0938 203.5 28.5859 204.078 27.9609C204.656 27.3203 205.109 26.5938 205.438 25.7812C205.781 24.9531 205.953 24.1016 205.953 23.2266ZM223.695 36H217.297V10.8984H218.844L220.953 13.875C221.984 12.9375 223.156 12.2188 224.469 11.7188C225.781 11.2031 227.141 10.9453 228.547 10.9453H234.195V17.3203H228.547C227.875 17.3203 227.242 17.4453 226.648 17.6953C226.055 17.9453 225.539 18.2891 225.102 18.7266C224.664 19.1641 224.32 19.6797 224.07 20.2734C223.82 20.8672 223.695 21.5 223.695 22.1719V36ZM243.031 45.5625V39.1172L246.594 39.1641C247.219 39.1641 247.82 39.0625 248.398 38.8594C248.977 38.6562 249.508 38.375 249.992 38.0156C250.492 37.6562 250.93 37.2266 251.305 36.7266C251.68 36.2422 251.984 35.7109 252.219 35.1328C251.516 35.4297 250.797 35.7266 250.062 36.0234C249.344 36.3203 248.617 36.4688 247.883 36.4688C246.336 36.4688 244.883 36.1953 243.523 35.6484C242.164 35.1016 240.969 34.3281 239.938 33.3281C238.922 32.3125 238.117 31.0859 237.523 29.6484C236.945 28.1953 236.656 26.5703 236.656 24.7734V10.8984H243.031V24.7734C243.031 25.6641 243.156 26.4453 243.406 27.1172C243.672 27.7734 244.023 28.3281 244.461 28.7812C244.898 29.2188 245.406 29.5469 245.984 29.7656C246.578 29.9844 247.211 30.0938 247.883 30.0938C248.539 30.0938 249.156 29.9453 249.734 29.6484C250.328 29.3359 250.844 28.9297 251.281 28.4297C251.719 27.9297 252.062 27.3672 252.312 26.7422C252.562 26.1016 252.688 25.4453 252.688 24.7734V10.8984H259.133V32.8359C259.117 34.6016 258.773 36.2578 258.102 37.8047C257.43 39.3516 256.508 40.7031 255.336 41.8594C254.18 43.0156 252.828 43.9297 251.281 44.6016C249.734 45.2734 248.078 45.6094 246.312 45.6094L243.031 45.5625Z" fill="white"/>
</svg>
