<svg width="223" height="41" viewBox="0 0 223 41" fill="none" xmlns="http://www.w3.org/2000/svg">
<path d="M4.56 26.32H13.96V30H-5.96046e-07V2.19999H4.56V26.32ZM37.7334 7.95999V30H33.1734V27.4C32.4534 28.3067 31.5068 29.0267 30.3334 29.56C29.1868 30.0667 27.9601 30.32 26.6534 30.32C24.9201 30.32 23.3601 29.96 21.9734 29.24C20.6134 28.52 19.5334 27.4533 18.7334 26.04C17.9601 24.6267 17.5734 22.92 17.5734 20.92V7.95999H22.0934V20.24C22.0934 22.2133 22.5868 23.7333 23.5734 24.8C24.5601 25.84 25.9068 26.36 27.6134 26.36C29.3201 26.36 30.6668 25.84 31.6534 24.8C32.6668 23.7333 33.1734 22.2133 33.1734 20.24V7.95999H37.7334ZM53.19 18.84L60.31 30H55.15L50.39 22.52L45.91 30H41.15L48.27 19.16L41.15 7.95999H46.31L51.07 15.44L55.55 7.95999H60.31L53.19 18.84ZM68.2709 26.32H77.6709V30H63.7109V2.19999H68.2709V26.32ZM79.9644 18.88C79.9644 16.6667 80.4177 14.7067 81.3244 13C82.2577 11.2933 83.511 9.97333 85.0844 9.03999C86.6844 8.07999 88.4444 7.59999 90.3644 7.59999C92.0977 7.59999 93.6044 7.94666 94.8844 8.63999C96.191 9.30666 97.231 10.1467 98.0044 11.16V7.95999H102.604V30H98.0044V26.72C97.231 27.76 96.1777 28.6267 94.8444 29.32C93.511 30.0133 91.991 30.36 90.2844 30.36C88.391 30.36 86.6577 29.88 85.0844 28.92C83.511 27.9333 82.2577 26.5733 81.3244 24.84C80.4177 23.08 79.9644 21.0933 79.9644 18.88ZM98.0044 18.96C98.0044 17.44 97.6844 16.12 97.0444 15C96.431 13.88 95.6177 13.0267 94.6044 12.44C93.591 11.8533 92.4977 11.56 91.3244 11.56C90.151 11.56 89.0577 11.8533 88.0444 12.44C87.031 13 86.2044 13.84 85.5644 14.96C84.951 16.0533 84.6444 17.36 84.6444 18.88C84.6444 20.4 84.951 21.7333 85.5644 22.88C86.2044 24.0267 87.031 24.9067 88.0444 25.52C89.0844 26.1067 90.1777 26.4 91.3244 26.4C92.4977 26.4 93.591 26.1067 94.6044 25.52C95.6177 24.9333 96.431 24.08 97.0444 22.96C97.6844 21.8133 98.0044 20.48 98.0044 18.96ZM128.554 7.95999V30H123.994V27.4C123.274 28.3067 122.327 29.0267 121.154 29.56C120.007 30.0667 118.78 30.32 117.474 30.32C115.74 30.32 114.18 29.96 112.794 29.24C111.434 28.52 110.354 27.4533 109.554 26.04C108.78 24.6267 108.394 22.92 108.394 20.92V7.95999H112.914V20.24C112.914 22.2133 113.407 23.7333 114.394 24.8C115.38 25.84 116.727 26.36 118.434 26.36C120.14 26.36 121.487 25.84 122.474 24.8C123.487 23.7333 123.994 22.2133 123.994 20.24V7.95999H128.554ZM145.69 7.59999C147.424 7.59999 148.97 7.95999 150.33 8.67999C151.717 9.39999 152.797 10.4667 153.57 11.88C154.344 13.2933 154.73 15 154.73 17V30H150.21V17.68C150.21 15.7067 149.717 14.2 148.73 13.16C147.744 12.0933 146.397 11.56 144.69 11.56C142.984 11.56 141.624 12.0933 140.61 13.16C139.624 14.2 139.13 15.7067 139.13 17.68V30H134.57V7.95999H139.13V10.48C139.877 9.57333 140.824 8.86666 141.97 8.35999C143.144 7.85333 144.384 7.59999 145.69 7.59999ZM159.027 18.88C159.027 16.6667 159.48 14.7067 160.387 13C161.32 11.2933 162.574 9.97333 164.147 9.03999C165.747 8.07999 167.52 7.59999 169.467 7.59999C170.907 7.59999 172.32 7.91999 173.707 8.55999C175.12 9.17333 176.24 9.99999 177.067 11.04V0.399996H181.667V30H177.067V26.68C176.32 27.7467 175.28 28.6267 173.947 29.32C172.64 30.0133 171.134 30.36 169.427 30.36C167.507 30.36 165.747 29.88 164.147 28.92C162.574 27.9333 161.32 26.5733 160.387 24.84C159.48 23.08 159.027 21.0933 159.027 18.88ZM177.067 18.96C177.067 17.44 176.747 16.12 176.107 15C175.493 13.88 174.68 13.0267 173.667 12.44C172.654 11.8533 171.56 11.56 170.387 11.56C169.214 11.56 168.12 11.8533 167.107 12.44C166.094 13 165.267 13.84 164.627 14.96C164.014 16.0533 163.707 17.36 163.707 18.88C163.707 20.4 164.014 21.7333 164.627 22.88C165.267 24.0267 166.094 24.9067 167.107 25.52C168.147 26.1067 169.24 26.4 170.387 26.4C171.56 26.4 172.654 26.1067 173.667 25.52C174.68 24.9333 175.493 24.08 176.107 22.96C176.747 21.8133 177.067 20.48 177.067 18.96ZM192.216 11.16C192.883 10.04 193.763 9.17333 194.856 8.55999C195.976 7.91999 197.296 7.59999 198.816 7.59999V12.32H197.656C195.87 12.32 194.51 12.7733 193.576 13.68C192.67 14.5867 192.216 16.16 192.216 18.4V30H187.656V7.95999H192.216V11.16ZM222.848 7.95999L209.328 40.36H204.608L209.088 29.64L200.408 7.95999H205.488L211.688 24.76L218.128 7.95999H222.848Z" fill="black"/>
</svg>
